<?xml version="1.0" encoding="UTF-8"?>
<svg width="200" height="64" viewBox="0 0 200 64" fill="none" xmlns="http://www.w3.org/2000/svg">
  <path d="M32 0C14.3269 0 0 14.3269 0 32C0 49.6731 14.3269 64 32 64C49.6731 64 64 49.6731 64 32C64 14.3269 49.6731 0 32 0Z" fill="url(#paint0_linear)"/>
  <path d="M21.3333 40C22.6697 40 23.9507 39.4732 24.8878 38.5355C25.8249 37.5979 26.3512 36.3165 26.3512 34.9796H24.0427C24.0427 35.647 23.7795 36.2877 23.3109 36.7564C22.8423 37.2251 22.2017 37.4883 21.5344 37.4883C20.867 37.4883 20.2264 37.2251 19.7577 36.7564C19.2891 36.2877 19.0259 35.647 19.0259 34.9796C19.0259 34.3123 19.2891 33.6716 19.7577 33.203C20.2264 32.7343 20.867 32.4711 21.5344 32.4711H42.6091C43.2764 32.4711 43.9171 32.7343 44.3857 33.203C44.8544 33.6716 45.1176 34.3123 45.1176 34.9796C45.1176 35.647 44.8544 36.2877 44.3857 36.7564C43.9171 37.2251 43.2764 37.4883 42.6091 37.4883C41.9417 37.4883 41.3011 37.2251 40.8324 36.7564C40.3638 36.2877 40.1006 35.647 40.1006 34.9796H37.792C37.792 36.3165 38.3183 37.5979 39.2554 38.5355C40.1925 39.4732 41.4735 40 42.8099 40C44.1464 40 45.4274 39.4732 46.3645 38.5355C47.3016 37.5979 47.8279 36.3165 47.8279 34.9796C47.8279 33.6427 47.3016 32.3613 46.3645 31.4236C45.4274 30.486 44.1464 29.9592 42.8099 29.9592H21.5344C20.1979 29.9592 18.9169 30.486 17.9798 31.4236C17.0427 32.3613 16.5164 33.6427 16.5164 34.9796C16.5164 36.3165 17.0427 37.5979 17.9798 38.5355C18.9169 39.4732 20.1979 40 21.5344 40H21.3333Z" fill="white"/>
  <path d="M42.6667 24C41.3333 24 40.0556 24.5263 39.12 25.4645C38.1844 26.4026 37.6585 27.6835 37.6585 29.0199H39.9641C39.9641 28.3532 40.227 27.713 40.6954 27.2445C41.1638 26.776 41.8038 26.513 42.471 26.513C43.1381 26.513 43.7782 26.776 44.2466 27.2445C44.715 27.713 44.978 28.3532 44.978 29.0199C44.978 29.6867 44.715 30.3269 44.2466 30.7954C43.7782 31.2639 43.1381 31.5269 42.471 31.5269H21.3933C20.7261 31.5269 20.086 31.2639 19.6176 30.7954C19.1492 30.3269 18.8862 29.6867 18.8862 29.0199C18.8862 28.3532 19.1492 27.713 19.6176 27.2445C20.086 26.776 20.7261 26.513 21.3933 26.513C22.0604 26.513 22.7005 26.776 23.1689 27.2445C23.6374 27.713 23.9003 28.3532 23.9003 29.0199H26.2059C26.2059 27.6835 25.68 26.4026 24.7444 25.4645C23.8089 24.5263 22.5311 24 21.1978 24C19.8644 24 18.5867 24.5263 17.6511 25.4645C16.7156 26.4026 16.1896 27.6835 16.1896 29.0199C16.1896 30.3564 16.7156 31.6373 17.6511 32.5754C18.5867 33.5136 19.8644 34.0399 21.1978 34.0399H42.471C43.8043 34.0399 45.082 33.5136 46.0176 32.5754C46.9531 31.6373 47.4791 30.3564 47.4791 29.0199C47.4791 27.6835 46.9531 26.4026 46.0176 25.4645C45.082 24.5263 43.8043 24 42.471 24H42.6667Z" fill="white"/>
  <path d="M82.635 43.45C81.005 43.45 79.51 43.145 78.15 42.535C76.8 41.915 75.635 41.065 74.655 39.985C73.685 38.905 72.935 37.655 72.405 36.235C71.885 34.815 71.625 33.305 71.625 31.705C71.625 30.065 71.885 28.525 72.405 27.085C72.935 25.645 73.685 24.375 74.655 23.275C75.635 22.175 76.8 21.315 78.15 20.695C79.51 20.075 81.005 19.765 82.635 19.765H86.25C87.89 19.765 89.39 20.075 90.75 20.695C92.11 21.315 93.275 22.175 94.245 23.275C95.215 24.375 95.96 25.645 96.48 27.085C97.01 28.525 97.275 30.065 97.275 31.705C97.275 33.305 97.01 34.815 96.48 36.235C95.96 37.655 95.215 38.905 94.245 39.985C93.275 41.065 92.11 41.915 90.75 42.535C89.39 43.145 87.89 43.45 86.25 43.45H82.635ZM86.25 39.16C87.36 39.16 88.365 38.955 89.265 38.545C90.165 38.135 90.93 37.57 91.56 36.85C92.2 36.13 92.685 35.285 93.015 34.315C93.355 33.345 93.525 32.3 93.525 31.18C93.525 30.02 93.355 28.95 93.015 27.97C92.685 26.99 92.2 26.145 91.56 25.435C90.93 24.725 90.165 24.17 89.265 23.77C88.365 23.37 87.36 23.17 86.25 23.17V26.9C86.78 26.9 87.275 26.98 87.735 27.14C88.205 27.3 88.61 27.53 88.95 27.83C89.3 28.12 89.57 28.48 89.76 28.91C89.96 29.34 90.06 29.82 90.06 30.35V32.1C90.06 32.62 89.96 33.11 89.76 33.57C89.57 34.02 89.3 34.4 88.95 34.71C88.61 35.02 88.205 35.26 87.735 35.43C87.275 35.59 86.78 35.67 86.25 35.67V39.16Z" fill="url(#paint1_linear)"/>
  <path d="M101.408 43V20.2H112.508C113.358 20.2 114.143 20.345 114.863 20.635C115.583 20.925 116.198 21.32 116.708 21.82C117.228 22.32 117.628 22.895 117.908 23.545C118.198 24.195 118.343 24.875 118.343 25.585C118.343 26.005 118.298 26.41 118.208 26.8C118.128 27.19 118.013 27.56 117.863 27.91C117.723 28.26 117.553 28.585 117.353 28.885C117.163 29.185 116.953 29.45 116.723 29.68C117.103 29.91 117.448 30.195 117.758 30.535C118.078 30.875 118.348 31.25 118.568 31.66C118.798 32.07 118.973 32.51 119.093 32.98C119.213 33.45 119.273 33.93 119.273 34.42C119.273 35.23 119.113 36.005 118.793 36.745C118.473 37.475 118.023 38.12 117.443 38.68C116.863 39.24 116.168 39.685 115.358 40.015C114.558 40.335 113.683 40.495 112.733 40.495H101.408V43ZM105.263 36.94H112.163C112.603 36.94 112.988 36.84 113.318 36.64C113.658 36.43 113.918 36.155 114.098 35.815C114.288 35.465 114.383 35.095 114.383 34.705C114.383 34.275 114.278 33.89 114.068 33.55C113.858 33.21 113.578 32.94 113.228 32.74C112.878 32.53 112.478 32.425 112.028 32.425H105.263V36.94ZM105.263 28.795H111.398C111.788 28.795 112.148 28.715 112.478 28.555C112.818 28.395 113.088 28.165 113.288 27.865C113.488 27.565 113.588 27.215 113.588 26.815C113.588 26.395 113.483 26.035 113.273 25.735C113.073 25.425 112.803 25.19 112.463 25.03C112.123 24.86 111.743 24.775 111.323 24.775H105.263V28.795Z" fill="url(#paint2_linear)"/>
  <path d="M126.774 43V19.27H134.574C135.984 19.27 137.294 19.475 138.504 19.885C139.714 20.285 140.779 20.87 141.699 21.64C142.619 22.41 143.349 23.34 143.889 24.43C144.429 25.52 144.699 26.745 144.699 28.105C144.699 29.465 144.429 30.705 143.889 31.825C143.349 32.935 142.619 33.885 141.699 34.675C140.779 35.455 139.709 36.06 138.489 36.49C137.279 36.91 135.984 37.12 134.604 37.12H130.629V43H126.774ZM130.629 33.625H134.409C135.239 33.625 135.989 33.505 136.659 33.265C137.339 33.015 137.929 32.665 138.429 32.215C138.929 31.765 139.319 31.225 139.599 30.595C139.879 29.955 140.019 29.245 140.019 28.465C140.019 27.605 139.869 26.84 139.569 26.17C139.269 25.5 138.849 24.94 138.309 24.49C137.769 24.03 137.144 23.685 136.434 23.455C135.724 23.215 134.969 23.095 134.169 23.095H130.629V33.625Z" fill="url(#paint3_linear)"/>
  <path d="M169.792 23.095H162.817V43H158.962V23.095H151.987V19.27H169.792V23.095Z" fill="#565CBC"/>
  <path d="M187.486 31.84C187.486 33.47 187.221 35.005 186.691 36.445C186.171 37.885 185.426 39.155 184.456 40.255C183.496 41.345 182.331 42.2 180.961 42.82C179.601 43.43 178.091 43.735 176.431 43.735C174.811 43.735 173.321 43.43 171.961 42.82C170.611 42.2 169.446 41.345 168.466 40.255C167.496 39.155 166.746 37.885 166.216 36.445C165.696 35.005 165.436 33.47 165.436 31.84V19.27H169.291V31.84C169.291 32.95 169.461 33.99 169.801 34.96C170.141 35.92 170.626 36.765 171.256 37.495C171.896 38.215 172.656 38.78 173.536 39.19C174.426 39.6 175.401 39.805 176.461 39.805C177.551 39.805 178.531 39.595 179.401 39.175C180.271 38.755 181.011 38.18 181.621 37.45C182.241 36.72 182.716 35.875 183.046 34.915C183.386 33.955 183.556 32.95 183.556 31.9V19.27H187.486V31.84Z" fill="#565CBC"/>
  <path d="M88.5 47H71.625V51H88.5V47Z" fill="url(#paint4_linear)"/>
  <path d="M165.375 47H90.375V51H165.375V47Z" fill="#565CBC"/>
  <defs>
    <linearGradient id="paint0_linear" x1="0" y1="0" x2="64" y2="64" gradientUnits="userSpaceOnUse">
      <stop stop-color="#8A2BE2"/>
      <stop offset="1" stop-color="#4834d4"/>
    </linearGradient>
    <linearGradient id="paint1_linear" x1="71.625" y1="31.6075" x2="97.275" y2="31.6075" gradientUnits="userSpaceOnUse">
      <stop stop-color="#8A2BE2"/>
      <stop offset="1" stop-color="#4834d4"/>
    </linearGradient>
    <linearGradient id="paint2_linear" x1="101.408" y1="31.6" x2="119.273" y2="31.6" gradientUnits="userSpaceOnUse">
      <stop stop-color="#8A2BE2"/>
      <stop offset="1" stop-color="#4834d4"/>
    </linearGradient>
    <linearGradient id="paint3_linear" x1="126.774" y1="31.135" x2="144.699" y2="31.135" gradientUnits="userSpaceOnUse">
      <stop stop-color="#8A2BE2"/>
      <stop offset="1" stop-color="#4834d4"/>
    </linearGradient>
    <linearGradient id="paint4_linear" x1="71.625" y1="49" x2="88.5" y2="49" gradientUnits="userSpaceOnUse">
      <stop stop-color="#8A2BE2"/>
      <stop offset="1" stop-color="#4834d4"/>
    </linearGradient>
  </defs>
</svg>